<?xml version="1.0" encoding="UTF-8" standalone="no"?>
<!-- Created with Inkscape (http://www.inkscape.org/) -->

<svg
   version="1.1"
   id="svg2"
   width="1587.4"
   height="1122.52"
   viewBox="0 0 1587.4 1122.52"
   sodipodi:docname="ZIMO Logo neu von Kaja für USB.ai"
   xmlns:inkscape="http://www.inkscape.org/namespaces/inkscape"
   xmlns:sodipodi="http://sodipodi.sourceforge.net/DTD/sodipodi-0.dtd"
   xmlns="http://www.w3.org/2000/svg"
   xmlns:svg="http://www.w3.org/2000/svg">
  <defs
     id="defs6">
    <clipPath
       clipPathUnits="userSpaceOnUse"
       id="clipPath80">
      <path
         d="M 0,841.89 H 1190.55 V 0 H 0 Z"
         id="path78" />
    </clipPath>
  </defs>
  <sodipodi:namedview
     id="namedview4"
     pagecolor="#ffffff"
     bordercolor="#000000"
     borderopacity="0.25"
     inkscape:showpageshadow="2"
     inkscape:pageopacity="0.0"
     inkscape:pagecheckerboard="0"
     inkscape:deskcolor="#d1d1d1" />
  <g
     id="g8"
     inkscape:groupmode="layer"
     inkscape:label="ZIMO Logo neu von Kaja für USB"
     transform="matrix(1.3333333,0,0,-1.3333333,0,1122.52)">
    <g
       id="g10"
       transform="translate(99.0475,356.6538)">
      <path
         d="M 0,0 -65.685,0.2 -65.209,0.326 9.023,19.887 0,0 8.842,20.196"
         style="fill:#41569f;fill-opacity:1;fill-rule:nonzero;stroke:none"
         id="path12" />
    </g>
    <g
       id="g14"
       transform="translate(150.5715,479.3861)">
      <path
         d="m 0,0 30.575,-2.182 -1.629,-140.052 -59.357,-131.547 -49.962,-3.19 -5.966,-4.918 83.157,184.658 6.144,92.907 -3.841,4.323 z"
         style="fill:#41569f;fill-opacity:1;fill-rule:nonzero;stroke:none"
         id="path16" />
    </g>
    <g
       id="g18"
       transform="translate(35.2951,440.6669)">
      <path
         d="m 0,0 114.397,38.718 3.842,-4.323 -6.145,-92.907 -83.156,-184.658 5.966,4.919 48.72,0.477 27.533,0.27 3.833,-7.625 -1.042,-77.027 -5.373,-4.904 -112.586,7.5 -6.104,7.361 1.603,68.91 81.287,179.163 -74.708,-19.687 -3.416,5.387 -0.152,71.877 z"
         style="fill:#b2d2f0;fill-opacity:1;fill-rule:nonzero;stroke:none"
         id="path20" />
    </g>
    <g
       id="g22"
       transform="translate(179.6945,476.4483)">
      <path
         d="m 0,0 7.875,16.45 38.576,12.989 6.577,-6.714 -3.86,-384.667 -6.284,-6.921 -38.593,1.935 -5.84,9.388 z"
         style="fill:#b2d2f0;fill-opacity:1;fill-rule:nonzero;stroke:none"
         id="path24" />
    </g>
    <g
       id="g26"
       transform="translate(146.4521,203.1627)">
      <path
         d="M 0,0 32.148,0.1 31.694,-84.255 2.791,-84.652 3.832,-7.625 Z"
         style="fill:#41569f;fill-opacity:1;fill-rule:nonzero;stroke:none"
         id="path28" />
    </g>
    <g
       id="g30"
       transform="translate(120.1603,205.605)">
      <path
         d="m 0,0 -1.242,-2.712 -48.72,-0.477"
         style="fill:#41569f;fill-opacity:1;fill-rule:nonzero;stroke:none"
         id="path32" />
    </g>
    <g
       id="g34"
       transform="translate(149.2431,118.5105)">
      <path
         d="M 0,0 -5.373,-4.904 32.288,-5.24 28.903,0.398 Z"
         style="fill:#41569f;fill-opacity:1;fill-rule:nonzero;stroke:none"
         id="path36" />
    </g>
    <g
       id="g38"
       transform="translate(277.1097,512.718)">
      <path
         d="m 0,0 8.119,11.654 328.004,111.532 13.142,-5.965 -2.961,-540.534 -10.334,-7.957 -69.455,4.424 -8.593,9.284 3.014,384.338 -10.313,-10.904 -57.821,-15.357 -7.569,-10.58 -11.141,-349.768 -54.461,3.552 -8.708,9.331 3.905,340.66 -6.814,-11.342 -45.793,-12.122 -8.225,-7.582 -1.01,-304.83 -5.029,-9.067 -46.598,2.956 -7.414,11.766 z"
         style="fill:#b2d2f0;fill-opacity:1;fill-rule:nonzero;stroke:none"
         id="path40" />
    </g>
    <g
       id="g42"
       transform="translate(226.1454,505.8875)">
      <path
         d="m 0,0 6.577,-6.714 -3.86,-384.667 -6.284,-6.921 53.053,1.485 -4.576,7.137 5.811,382.774 z"
         style="fill:#41569f;fill-opacity:1;fill-rule:nonzero;stroke:none"
         id="path44" />
    </g>
    <g
       id="g46"
       transform="translate(613.2324,635.9042)">
      <path
         d="m 0,0 62.891,-8.713 12.631,-6.816 -3.561,-529.257 -10.05,-8.367 -62.064,-1.303 10.484,8.539 2.811,539.952 z"
         style="fill:#41569f;fill-opacity:1;fill-rule:nonzero;stroke:none"
         id="path48" />
    </g>
    <g
       id="g50"
       transform="translate(147.3892,382.1547)">
      <path
         d="M 0,0 6.102,10.985 6.145,92.907"
         style="fill:#b2d2f0;fill-opacity:1;fill-rule:nonzero;stroke:none"
         id="path52" />
    </g>
    <g
       id="g54"
       transform="translate(451.2019,92.8848)">
      <path
         d="m 0,0 9.663,7.204 1.478,342.564 z"
         style="fill:#b2d2f0;fill-opacity:1;fill-rule:nonzero;stroke:none"
         id="path56" />
    </g>
    <g
       id="g58"
       transform="translate(451.2019,92.8848)">
      <path
         d="m 0,0 9.663,7.204 2.483,343.555 7.94,10.255 -6.538,2.491 -14.875,-15.75 V 5.005"
         style="fill:#b2d2f0;fill-opacity:1;fill-rule:nonzero;stroke:none"
         id="path60" />
    </g>
    <g
       id="g62"
       transform="translate(1081.3595,47.8936)">
      <path
         d="M 0,0 67.216,4.986 84.761,17.247 V 717.754 L 15.987,739.319 16.051,12.016 Z"
         style="fill:#41569f;fill-opacity:1;fill-rule:nonzero;stroke:none"
         id="path64" />
    </g>
    <g
       id="g66"
       transform="translate(538.0457,479.4937)">
      <path
         d="m 0,0 -0.4,-28.503 -8.408,-0.901 -9.127,-11.983 -3.058,-335.787 -8.806,-9.033 -57.674,-0.361 10.293,7.164 2.482,343.554 7.707,9.698 56.678,15.249 z"
         style="fill:#41569f;fill-opacity:1;fill-rule:nonzero;stroke:none"
         id="path68" />
    </g>
    <g
       id="g70"
       transform="translate(391.938,446.4279)">
      <path
         d="m 0,0 -6.814,-11.342 -45.794,-12.122 -8.224,-7.582 -1.01,-304.83 -5.03,-9.067 51.637,0.749 7.565,9.663 3.262,299.914 3.897,4.901 z"
         style="fill:#41569f;fill-opacity:1;fill-rule:nonzero;stroke:none"
         id="path72" />
    </g>
    <g
       id="g74">
      <g
         id="g76"
         clip-path="url(#clipPath80)">
        <g
           id="g82"
           transform="translate(448.857,274.5418)">
          <path
             d="m 0,0 c 1.254,-4.98 2.233,-9.995 2.875,-15.092 0.357,-2.835 3.815,-3.352 4.91,-0.664 C 11.443,-6.784 11,2.754 9.851,12.19 9.256,17.076 8.51,21.953 8.28,26.875 8.049,31.798 8.39,36.596 6.869,41.347 5.892,44.399 1.062,43.094 2.048,40.017 3.609,35.14 3.037,30.073 3.39,25.034 3.691,20.733 4.333,16.468 4.851,12.19 5.944,3.168 6.468,-5.83 2.964,-14.427 4.601,-14.649 6.238,-14.87 7.875,-15.092 7.177,-9.549 6.185,-4.09 4.821,1.329 4.036,4.448 -0.787,3.126 0,0"
             style="fill:#b2d2f0;fill-opacity:1;fill-rule:nonzero;stroke:none"
             id="path84" />
        </g>
        <g
           id="g86"
           transform="translate(446.8175,284.5572)">
          <path
             d="M 0,0 C -0.216,-8.276 0.372,-16.452 1.678,-24.625 2.185,-27.794 7.004,-26.449 6.5,-23.296 5.265,-15.569 4.796,-7.819 5,0 5.084,3.219 0.084,3.217 0,0"
             style="fill:#b2d2f0;fill-opacity:1;fill-rule:nonzero;stroke:none"
             id="path88" />
        </g>
        <g
           id="g90"
           transform="translate(451.6051,257.2187)">
          <path
             d="m 0,0 c -1.135,-6.885 -2.27,-13.77 -3.404,-20.655 -0.519,-3.148 4.298,-4.501 4.821,-1.329 1.135,6.885 2.27,13.77 3.404,20.655 C 5.34,1.818 0.523,3.172 0,0"
             style="fill:#b2d2f0;fill-opacity:1;fill-rule:nonzero;stroke:none"
             id="path92" />
        </g>
        <g
           id="g94"
           transform="translate(439.7737,245.9418)">
          <path
             d="m 0,0 c 0.566,-2.227 0.644,-4.435 0.343,-6.711 -0.178,-1.341 1.276,-2.5 2.5,-2.5 1.498,0 2.321,1.155 2.5,2.5 0.358,2.703 0.149,5.399 -0.522,8.04 C 4.03,4.446 -0.794,3.125 0,0"
             style="fill:#b2d2f0;fill-opacity:1;fill-rule:nonzero;stroke:none"
             id="path96" />
        </g>
        <g
           id="g98"
           transform="translate(450.5434,224.6679)">
          <path
             d="m 0,0 c -1.046,-3.665 -2.093,-7.329 -3.139,-10.994 1.637,-0.221 3.274,-0.443 4.911,-0.664 -0.393,23.655 -0.957,47.314 -1.166,70.972 -0.095,10.682 1.526,21.233 1.557,31.887 0.031,10.641 -1.959,21.158 -5.629,31.131 -0.9,2.444 -5.19,2.347 -4.911,-0.664 2.351,-25.344 -7.276,-49.535 -8.478,-74.647 -0.605,-12.632 1.982,-24.763 4.213,-37.115 1.94,-10.736 0.582,-23.947 6.558,-33.498 0.986,-1.577 3.349,-1.659 4.317,0 1.656,2.836 2.727,5.688 3.272,8.938 -1.637,0.222 -3.274,0.443 -4.911,0.665 0.409,-7.862 -0.221,-15.548 -1.972,-23.23 1.607,-0.443 3.214,-0.886 4.822,-1.329 l 0.798,5.026 c -1.637,0.221 -3.274,0.443 -4.911,0.664 -1.791,-14.909 -1.549,-29.803 0.557,-44.665 0.412,-2.908 4.775,-2.004 4.911,0.665 0.533,10.508 0.188,20.972 -1.035,31.422 -0.366,3.126 -4.873,3.296 -5,0 -0.648,-16.875 -1.015,-33.757 -1.103,-50.644 -0.014,-2.76 4.3,-3.473 4.911,-0.664 1.739,7.989 3.468,16.099 3.122,24.325 -0.328,7.786 -2.194,15.442 -3.414,23.113 -2.886,18.137 -3.886,36.515 -3.268,54.863 0.108,3.218 -4.892,3.214 -5,0 -0.568,-16.851 0.268,-33.689 2.585,-50.391 1.153,-8.313 3.181,-16.563 3.912,-24.924 0.762,-8.722 -0.913,-17.175 -2.758,-25.657 1.637,-0.222 3.274,-0.443 4.91,-0.665 0.088,16.887 0.455,33.769 1.103,50.644 h -5 c 1.223,-10.45 1.568,-20.914 1.035,-31.422 1.637,0.221 3.274,0.443 4.911,0.664 -2.04,14.391 -2.111,28.911 -0.379,43.336 0.333,2.772 -4.469,3.447 -4.911,0.665 -0.266,-1.675 -0.532,-3.35 -0.798,-5.026 -0.493,-3.104 4.093,-4.527 4.822,-1.329 1.846,8.101 2.582,16.257 2.15,24.559 -0.138,2.649 -4.419,3.593 -4.91,0.665 -0.475,-2.827 -1.319,-5.263 -2.768,-7.745 h 4.317 c -3.209,5.128 -3.483,10.917 -3.951,16.792 -0.466,5.852 -1.379,11.63 -2.45,17.4 -2.326,12.527 -4.472,24.713 -3.455,37.508 1.895,23.839 10.487,46.883 8.246,71.037 -1.637,-0.222 -3.274,-0.443 -4.911,-0.665 3.734,-10.144 5.684,-20.754 5.427,-31.581 C -3.115,78.748 -4.509,68.227 -4.373,57.517 -4.08,34.458 -3.611,11.4 -3.228,-11.658 c 0.046,-2.81 4.128,-3.406 4.91,-0.665 1.047,3.665 2.093,7.329 3.139,10.994 C 5.706,1.77 0.883,3.094 0,0"
             style="fill:#b2d2f0;fill-opacity:1;fill-rule:nonzero;stroke:none"
             id="path100" />
        </g>
        <g
           id="g102"
           transform="translate(468.0021,461.3007)">
          <path
             d="m 0,0 c -2.151,-0.706 -4.303,-1.411 -6.454,-2.117 -2.543,-0.834 -2.287,-5.126 0.664,-4.911 1.967,0.144 3.933,0.287 5.899,0.43 -0.833,0.834 -1.667,1.667 -2.5,2.5 -0.221,-2.338 1.01,-3.766 3.186,-4.396 v 4.822 c -2.113,-0.384 -3.797,-1.086 -5.559,-2.299 1.253,-0.72 2.507,-1.44 3.761,-2.159 0.019,2.742 -1.765,4.95 -4.616,5.218 -3.817,0.358 -7.617,-3.359 -10.517,-5.338 -2.628,-1.793 -0.281,-5.978 2.523,-4.317 0.91,0.182 1.819,0.364 2.728,0.546 -0.367,1.393 -0.735,2.785 -1.103,4.178 -3.871,-5.001 -8.168,-9.523 -12.965,-13.644 1.179,-1.179 2.357,-2.357 3.536,-3.536 5.836,5.459 11.672,10.918 17.508,16.377 -1.178,1.178 -2.357,2.357 -3.535,3.535 -5.591,-5.332 -12.915,-9.659 -16.363,-16.84 -4.024,-8.379 1.411,-16.164 0.495,-24.695 h 5 c 0.78,8.968 1.55,17.936 2.309,26.905 0.247,2.912 -4.089,3.243 -4.911,0.665 -5.389,-16.922 8.705,-34.83 0.76,-50.983 l 4.658,-1.262 -2.693,24.8 h -5 c 2.314,-20.122 4.629,-40.244 6.943,-60.367 1.637,0.222 3.274,0.444 4.911,0.665 -1.527,8.769 -3.658,17.364 -6.405,25.83 -0.713,2.198 -4.289,2.554 -4.821,0 -4.023,-19.303 0.931,-38.765 -0.595,-58.206 h 5 c -0.018,15.651 -0.035,31.303 -0.053,46.955 h -5 c 1.216,-12.913 1.213,-25.893 -0.198,-38.792 -0.583,-5.334 -1.87,-10.781 -1.001,-16.151 1.116,-6.898 3.989,-11.749 1.723,-18.948 1.636,-0.222 3.273,-0.443 4.91,-0.665 0.705,11.028 1.41,22.055 2.115,33.082 0.181,2.835 -4.214,3.365 -4.911,0.665 -4.657,-18.064 -4.734,-36.738 -0.24,-54.843 0.662,-2.666 5.199,-2.191 4.911,0.665 -0.662,6.563 -1.323,13.127 -1.984,19.69 -0.324,3.212 -4.672,3.215 -5,0 -1.097,-10.746 -1.567,-21.517 -1.409,-32.317 1.637,0.221 3.274,0.443 4.911,0.664 -2.554,17.056 -3.812,34.247 -3.845,51.491 -0.007,3.255 -4.753,3.172 -5,0 -0.949,-12.145 -1.436,-24.318 -1.379,-36.501 0.023,-4.81 -0.626,-10.37 1.045,-14.965 1.629,-4.479 5.305,-8.466 8.026,-12.31 1.348,-1.904 4.715,-1.396 4.659,1.262 -0.174,8.18 -0.43,16.358 -0.767,24.533 -0.133,3.206 -5.133,3.223 -5,0 0.337,-8.175 0.593,-16.353 0.767,-24.533 1.553,0.42 3.106,0.841 4.659,1.262 -2.528,3.57 -6.425,7.551 -7.779,11.772 -1.594,4.972 -0.633,11.775 -0.61,16.929 0.049,10.866 0.533,21.719 1.379,32.551 h -5 c 0.034,-17.699 1.403,-35.317 4.023,-52.82 0.422,-2.818 4.951,-2.098 4.911,0.665 -0.158,10.8 0.312,21.571 1.409,32.317 h -5 c 0.661,-6.563 1.322,-13.127 1.984,-19.69 1.637,0.222 3.274,0.443 4.91,0.665 -4.28,17.241 -4.194,34.982 0.241,52.184 -1.637,0.221 -3.274,0.443 -4.911,0.664 -0.705,-11.027 -1.41,-22.054 -2.115,-33.082 -0.185,-2.904 4.092,-3.265 4.911,-0.664 1.766,5.609 1.486,10.889 -0.305,16.443 -2.022,6.268 -1.22,11.691 -0.453,18.102 1.617,13.513 1.688,27.131 0.413,40.675 -0.296,3.145 -5.003,3.277 -5,0 0.018,-15.652 0.035,-31.304 0.053,-46.955 0.003,-3.256 4.75,-3.172 5,0 1.488,18.958 -3.502,38.075 0.416,56.877 h -4.821 c 2.746,-8.466 4.877,-17.061 6.404,-25.83 0.478,-2.743 5.234,-2.143 4.911,0.664 -2.314,20.123 -4.629,40.245 -6.943,60.367 -0.363,3.153 -5.349,3.207 -5,0 l 2.693,-24.8 c 0.24,-2.206 3.448,-3.725 4.659,-1.262 8.505,17.291 -5.806,34.75 -0.255,52.177 -1.637,0.222 -3.274,0.443 -4.911,0.665 -0.759,-8.969 -1.529,-17.937 -2.309,-26.905 -0.28,-3.226 4.662,-3.153 5,0 0.843,7.852 -4.632,15.91 -0.578,23.339 3.308,6.061 10.093,9.999 14.981,14.661 2.336,2.228 -1.187,5.731 -3.535,3.535 -5.836,-5.458 -11.673,-10.917 -17.509,-16.376 -2.374,-2.221 1.121,-5.611 3.536,-3.536 4.797,4.122 9.093,8.644 12.965,13.645 1.038,1.341 0.949,3.773 -1.103,4.178 -2.513,0.496 -4.364,0.263 -6.581,-1.05 0.841,-1.439 1.682,-2.878 2.523,-4.317 0.662,0.451 7.612,4.696 7.61,4.437 -0.012,-1.793 2.172,-3.253 3.762,-2.159 1.406,0.968 2.686,1.49 4.365,1.795 2.532,0.46 2.224,4.178 0,4.822 0.162,-0.142 0.323,-0.284 0.485,-0.426 0.121,1.281 -1.245,2.592 -2.5,2.5 -1.966,-0.143 -3.932,-0.286 -5.899,-0.43 l 0.665,-4.911 6.454,2.118 C 4.373,-3.823 3.07,1.007 0,0"
             style="fill:#b2d2f0;fill-opacity:1;fill-rule:nonzero;stroke:none"
             id="path104" />
        </g>
        <g
           id="g106"
           transform="translate(445.1556,263.1762)">
          <path
             d="m 0,0 c 2.19,-28.314 2.67,-56.74 1.321,-85.109 -0.66,-13.872 -2.255,-27.64 -3.188,-41.484 -0.434,-6.451 0.983,-12.253 1.886,-18.574 0.927,-6.491 -1.446,-13.025 0.783,-19.326 1.063,-3.003 5.614,-1.831 4.822,1.329 l -3.609,14.397 c -1.46,5.825 -3.351,10.997 -1.313,16.915 3.317,9.633 5.855,19.414 8.217,29.32 0.75,3.149 -3.794,4.367 -4.822,1.329 -4.154,-12.274 -5.705,-25.091 -4.579,-38.001 0.247,-2.828 3.925,-3.371 4.911,-0.665 2.484,6.816 2.536,13.852 0.176,20.713 -1.04,3.025 -5.872,1.726 -4.821,-1.329 2.089,-6.075 2.024,-12.017 -0.177,-18.055 l 4.911,-0.664 c -1.091,12.504 0.376,24.782 4.401,36.672 -1.608,0.443 -3.215,0.886 -4.822,1.329 -1.29,-5.411 -2.577,-10.826 -4.06,-16.188 -1.502,-5.429 -3.866,-10.732 -5.114,-16.204 -1.075,-4.719 0.449,-9.232 1.594,-13.802 1.429,-5.699 2.857,-11.397 4.285,-17.096 1.607,0.443 3.214,0.886 4.822,1.329 -2.141,6.049 0.196,12.973 -0.784,19.326 -1,6.492 -2.128,12.416 -1.561,19.035 1.189,13.885 2.51,27.721 3.132,41.65 C 7.649,-55.433 7.14,-27.663 5,0 4.753,3.187 -0.249,3.214 0,0"
             style="fill:#b2d2f0;fill-opacity:1;fill-rule:nonzero;stroke:none"
             id="path108" />
        </g>
        <g
           id="g110"
           transform="translate(884.0173,523.8759)">
          <path
             d="m 0,0 -12.667,-14.101 -0.297,-282.097 71.311,2.201 17.804,14.013 -1.978,297.637 z m -165.543,148.424 359.308,120.121 19.564,-5.209 0.064,-727.303 -16.051,-12.015 -363.408,25.338 -11.591,13.106 3.528,572.364 z"
             style="fill:#b2d2f0;fill-opacity:1;fill-rule:nonzero;stroke:none"
             id="path112" />
        </g>
        <g
           id="g114"
           transform="translate(940.5323,561.7442)">
          <path
             d="m 0,0 19.636,20.211 -1.978,-40.427 -74.173,-17.652 -12.667,-14.102 -0.297,-282.096 -51.496,-1.408 -14.788,-12.759 0.524,306.229 13.602,15.255 z"
             style="fill:#41569f;fill-opacity:1;fill-rule:nonzero;stroke:none"
             id="path116" />
        </g>
      </g>
    </g>
  </g>
</svg>
